<?xml version="1.0" encoding="UTF-8" standalone="no"?>
<svg width="104px" height="105px" viewBox="0 0 104 105" version="1.1" xmlns="http://www.w3.org/2000/svg" xmlns:xlink="http://www.w3.org/1999/xlink" xmlns:sketch="http://www.bohemiancoding.com/sketch/ns">
    <!-- Generator: Sketch 3.3.3 (12072) - http://www.bohemiancoding.com/sketch -->
    <title>skydea-crud-icons</title>
    <desc>Created with Sketch.</desc>
    <defs></defs>
    <g id="Page-1" stroke="none" stroke-width="1" fill="none" fill-rule="evenodd" sketch:type="MSPage">
        <g id="Shape-+-Shape" sketch:type="MSLayerGroup" fill="#D0011B">
            <path d="M52,0.3 C23.3,0.3 0,23.6 0,52.3 C0,81 23.3,104.3 52,104.3 C80.7,104.3 104,81 104,52.3 C104,23.6 80.7,0.3 52,0.3 L52,0.3 Z M52,100.3 C25.5,100.3 4,78.8 4,52.3 C4,25.8 25.5,4.3 52,4.3 C78.5,4.3 100,25.8 100,52.3 C100,78.8 78.5,100.3 52,100.3 L52,100.3 Z" id="Shape" sketch:type="MSShapeGroup"></path>
            <path d="M73.05,31.2 C75.35,33.5 75.35,37.3 73.05,39.7 L60.65,52.1 L73.35,64.8 C75.65,67.1 75.65,70.9 73.35,73.3 C71.05,75.6 67.25,75.6 64.85,73.3 L52.15,60.6 L39.15,73.7 C36.85,76 33.05,76 30.65,73.7 C28.25,71.4 28.35,67.6 30.65,65.2 L43.75,52.1 L30.95,39.4 C28.65,37.1 28.65,33.3 30.95,30.9 C33.25,28.5 37.05,28.6 39.45,30.9 L52.15,43.6 L64.55,31.2 C66.95,28.9 70.75,28.9 73.05,31.2 L73.05,31.2 Z M74.45,29.8 C71.35,26.7 66.25,26.7 63.15,29.8 L52.15,40.8 L40.85,29.5 C37.75,26.4 32.65,26.4 29.55,29.5 C26.45,32.6 26.45,37.7 29.55,40.8 L40.85,52.1 L29.25,63.8 C26.15,66.9 26.15,72 29.25,75.1 C32.35,78.2 37.45,78.2 40.55,75.1 L52.15,63.5 L63.45,74.8 C66.55,77.9 71.65,77.9 74.75,74.8 C77.85,71.7 77.85,66.6 74.75,63.5 L63.45,52.1 L74.45,41.1 C77.55,38 77.55,32.9 74.45,29.8 L74.45,29.8 L74.45,29.8 Z" id="Shape" sketch:type="MSShapeGroup"></path>
        </g>
    </g>
</svg>