<?xml version="1.0" encoding="UTF-8" standalone="no"?>
<svg width="104px" height="105px" viewBox="0 0 104 105" version="1.1" xmlns="http://www.w3.org/2000/svg" xmlns:xlink="http://www.w3.org/1999/xlink" xmlns:sketch="http://www.bohemiancoding.com/sketch/ns">
    <!-- Generator: Sketch 3.3.3 (12072) - http://www.bohemiancoding.com/sketch -->
    <title>skydea-crud-icons</title>
    <desc>Created with Sketch.</desc>
    <defs></defs>
    <g id="Page-1" stroke="none" stroke-width="1" fill="none" fill-rule="evenodd" sketch:type="MSPage">
        <g id="Shape-+-Shape" sketch:type="MSLayerGroup" fill="#39B6E5">
            <path d="M52,0.5 C23.3,0.5 0,23.8 0,52.5 C0,81.2 23.3,104.5 52,104.5 C80.7,104.5 104,81.2 104,52.5 C104,23.8 80.7,0.5 52,0.5 L52,0.5 Z M52,100.5 C25.5,100.5 4,79 4,52.5 C4,26 25.5,4.5 52,4.5 C78.5,4.5 100,26 100,52.5 C100,79 78.5,100.5 52,100.5 L52,100.5 Z" id="Shape" sketch:type="MSShapeGroup"></path>
            <path d="M52,23.5 C55.3,23.5 58,26.2 58,29.5 L58,47 L76,47 C79.3,47 82,49.7 82,53 C82,56.3 79.3,59 76,59 L58,59 L58,77.5 C58,80.8 55.3,83.5 52,83.5 C48.7,83.5 46,80.8 46,77.5 L46,59 L28,59 C24.7,59 22,56.3 22,53 C22,49.7 24.7,47 28,47 L46,47 L46,29.5 C46,26.1 48.7,23.5 52,23.5 L52,23.5 Z M52,21.5 C47.6,21.5 44,25.1 44,29.5 L44,45 L28,45 C23.6,45 20,48.6 20,53 C20,57.4 23.6,61 28,61 L44,61 L44,77.5 C44,81.9 47.6,85.5 52,85.5 C56.4,85.5 60,81.9 60,77.5 L60,61 L76,61 C80.4,61 84,57.4 84,53 C84,48.6 80.4,45 76,45 L60,45 L60,29.5 C60,25 56.4,21.5 52,21.5 L52,21.5 L52,21.5 Z" id="Shape" sketch:type="MSShapeGroup"></path>
        </g>
    </g>
</svg>